<?xml version="1.0" encoding="utf-8"?>
<!-- Generator: Adobe Illustrator 15.1.0, SVG Export Plug-In . SVG Version: 6.00 Build 0)  -->
<!DOCTYPE svg PUBLIC "-//W3C//DTD SVG 1.1//EN" "http://www.w3.org/Graphics/SVG/1.1/DTD/svg11.dtd">
<svg version="1.1" id="Layer_1" xmlns="http://www.w3.org/2000/svg" xmlns:xlink="http://www.w3.org/1999/xlink" x="0px" y="0px"
	 width="60px" height="15px" viewBox="0 0 60 15" enable-background="new 0 0 60 15" xml:space="preserve">
<g>
	<path fill="#FFFFFF" d="M59.664,13.229c0,0.795-0.643,1.438-1.438,1.438H1.774c-0.796,0-1.44-0.643-1.44-1.438V1.771
		c0-0.793,0.645-1.438,1.44-1.438h56.453c0.795,0,1.438,0.645,1.438,1.438V13.229z"/>
	<path fill="#A6A6A6" d="M58.227,15H1.774C0.797,15,0,14.206,0,13.229V1.772C0,0.795,0.797,0,1.774,0h56.453
		C59.203,0,60,0.795,60,1.772v11.457C60,14.206,59.203,15,58.227,15L58.227,15z"/>
	<path fill="#010101" d="M59.664,13.229c0,0.795-0.643,1.438-1.438,1.438H1.774c-0.796,0-1.44-0.643-1.44-1.438V1.771
		c0-0.793,0.645-1.438,1.44-1.438h56.453c0.795,0,1.438,0.645,1.438,1.438V13.229z"/>
	<g>
		<path fill="#FFFFFF" d="M14.083,10.852h-1.258l-0.689-2.166H9.739l-0.656,2.166H7.858l2.374-7.373h1.466L14.083,10.852z
			 M11.928,7.778l-0.624-1.925c-0.065-0.197-0.189-0.66-0.371-1.39H10.91c-0.073,0.314-0.189,0.777-0.35,1.39L9.947,7.778H11.928z"
			/>
		<path fill="#FFFFFF" d="M20.177,8.128c0,0.904-0.246,1.619-0.737,2.146c-0.44,0.467-0.986,0.699-1.64,0.699
			c-0.704,0-1.21-0.252-1.518-0.755v2.79H15.1V7.283c0-0.568-0.015-1.151-0.044-1.748h1.039l0.065,0.842h0.022
			c0.394-0.634,0.991-0.952,1.794-0.952c0.627,0,1.15,0.248,1.57,0.744C19.967,6.666,20.177,7.318,20.177,8.128z M18.973,8.172
			c0-0.518-0.116-0.944-0.35-1.28c-0.256-0.35-0.598-0.525-1.028-0.525c-0.292,0-0.557,0.097-0.793,0.29
			c-0.237,0.193-0.393,0.447-0.465,0.76c-0.037,0.146-0.055,0.266-0.055,0.361v0.886c0,0.387,0.118,0.713,0.355,0.979
			c0.236,0.269,0.545,0.4,0.924,0.4c0.445,0,0.792-0.172,1.04-0.516C18.849,9.186,18.973,8.732,18.973,8.172z"/>
		<path fill="#FFFFFF" d="M26.292,8.128c0,0.904-0.246,1.619-0.737,2.146c-0.44,0.467-0.986,0.699-1.64,0.699
			c-0.704,0-1.21-0.252-1.518-0.755v2.79h-1.182V7.283c0-0.568-0.015-1.151-0.044-1.748h1.039l0.065,0.842h0.022
			c0.394-0.634,0.991-0.952,1.794-0.952c0.627,0,1.15,0.248,1.57,0.744C26.082,6.666,26.292,7.318,26.292,8.128z M25.088,8.172
			c0-0.518-0.116-0.944-0.35-1.28c-0.256-0.35-0.598-0.525-1.028-0.525c-0.292,0-0.557,0.097-0.793,0.29
			c-0.237,0.193-0.393,0.447-0.465,0.76c-0.037,0.146-0.055,0.266-0.055,0.361v0.886c0,0.387,0.118,0.713,0.355,0.979
			c0.236,0.269,0.545,0.4,0.924,0.4c0.445,0,0.792-0.172,1.04-0.516C24.964,9.186,25.088,8.732,25.088,8.172z"/>
		<path fill="#FFFFFF" d="M33.129,8.784c0,0.628-0.219,1.138-0.654,1.532c-0.48,0.43-1.149,0.645-2.009,0.645
			c-0.793,0-1.43-0.152-1.91-0.459l0.273-0.984c0.518,0.308,1.087,0.459,1.707,0.459c0.444,0,0.791-0.1,1.039-0.301
			c0.248-0.199,0.372-0.469,0.372-0.804c0-0.3-0.104-0.552-0.307-0.755c-0.205-0.204-0.543-0.394-1.019-0.569
			c-1.291-0.481-1.936-1.185-1.936-2.112c0-0.605,0.228-1.101,0.684-1.488c0.455-0.386,1.059-0.58,1.812-0.58
			c0.67,0,1.229,0.117,1.674,0.35l-0.297,0.963c-0.418-0.226-0.891-0.339-1.416-0.339c-0.418,0-0.744,0.102-0.979,0.306
			c-0.197,0.183-0.297,0.405-0.297,0.667c0,0.292,0.113,0.533,0.34,0.722c0.196,0.175,0.555,0.365,1.072,0.569
			c0.634,0.255,1.101,0.554,1.398,0.897C32.979,7.847,33.129,8.273,33.129,8.784z"/>
		<path fill="#FFFFFF" d="M37.046,6.421h-1.303v2.583c0,0.656,0.229,0.984,0.688,0.984c0.213,0,0.387-0.02,0.525-0.055l0.033,0.896
			c-0.234,0.088-0.54,0.131-0.92,0.131c-0.467,0-0.832-0.142-1.094-0.426c-0.264-0.285-0.395-0.763-0.395-1.435V6.42h-0.775V5.535
			h0.775V4.562l1.159-0.35v1.324h1.303v0.885H37.046z"/>
		<path fill="#FFFFFF" d="M42.909,8.15c0,0.815-0.233,1.486-0.7,2.012c-0.488,0.541-1.139,0.811-1.947,0.811
			c-0.781,0-1.402-0.26-1.865-0.777s-0.694-1.17-0.694-1.957c0-0.824,0.239-1.499,0.717-2.024c0.478-0.525,1.121-0.788,1.931-0.788
			c0.78,0,1.408,0.259,1.883,0.777C42.684,6.706,42.909,7.355,42.909,8.15z M41.684,8.178c0-0.488-0.104-0.906-0.316-1.255
			c-0.248-0.422-0.602-0.633-1.061-0.633c-0.476,0-0.836,0.211-1.084,0.633c-0.211,0.349-0.316,0.774-0.316,1.276
			c0,0.486,0.105,0.904,0.316,1.254c0.256,0.422,0.612,0.633,1.071,0.633c0.452,0,0.806-0.215,1.062-0.643
			C41.574,9.086,41.684,8.664,41.684,8.178z"/>
		<path fill="#FFFFFF" d="M46.749,6.575c-0.117-0.022-0.241-0.033-0.372-0.033c-0.416,0-0.736,0.157-0.963,0.471
			c-0.197,0.277-0.295,0.627-0.295,1.049v2.789h-1.182V7.209c0-0.613-0.012-1.17-0.033-1.674h1.027l0.045,1.018h0.032
			c0.124-0.35,0.32-0.631,0.591-0.842c0.262-0.19,0.547-0.285,0.854-0.285c0.109,0,0.208,0.007,0.296,0.022V6.575z"/>
		<path fill="#FFFFFF" d="M52.033,7.942c0,0.212-0.016,0.39-0.045,0.537h-3.545c0.016,0.525,0.188,0.927,0.516,1.203
			c0.299,0.248,0.686,0.371,1.159,0.371c0.524,0,1.003-0.083,1.434-0.251l0.187,0.82c-0.504,0.22-1.098,0.329-1.783,0.329
			c-0.824,0-1.471-0.243-1.941-0.729c-0.471-0.484-0.705-1.137-0.705-1.953c0-0.803,0.219-1.47,0.655-2.001
			c0.46-0.569,1.08-0.853,1.86-0.853c0.766,0,1.346,0.284,1.738,0.853C51.876,6.721,52.033,7.278,52.033,7.942z M50.906,7.636
			c0.007-0.35-0.069-0.653-0.229-0.908c-0.204-0.328-0.519-0.492-0.94-0.492c-0.387,0-0.7,0.161-0.94,0.481
			c-0.196,0.255-0.313,0.562-0.351,0.919H50.906z"/>
	</g>
</g>
</svg>
